<svg xmlns="http://www.w3.org/2000/svg" xmlns:xlink="http://www.w3.org/1999/xlink" width="500" zoomAndPan="magnify" viewBox="0 0 375 374.999991" height="500" preserveAspectRatio="xMidYMid meet" version="1.0"><defs><g/><clipPath id="beaf3c5535"><path d="M 91.648438 99.488281 L 232 99.488281 L 232 274 L 91.648438 274 Z M 91.648438 99.488281 " clip-rule="nonzero"/></clipPath></defs><g clip-path="url(#beaf3c5535)"><path fill="#ac1929" d="M 219.359375 213.964844 L 199.960938 195.632812 C 199.960938 195.632812 213.480469 162.011719 219.359375 151.488281 C 221.875 146.988281 224.878906 141.054688 226.609375 134.492188 C 226.765625 134.519531 226.921875 134.535156 227.085938 134.535156 C 229.617188 134.535156 231.667969 130.851562 231.667969 126.308594 C 231.667969 122.890625 230.511719 119.964844 228.859375 118.71875 C 228.859375 118.71875 226.5625 120.410156 226.414062 123.726562 C 226.414062 123.726562 225.78125 120.117188 228.667969 117.015625 C 228.179688 113.378906 227.292969 111.242188 225.121094 108.613281 C 221.261719 103.957031 215.359375 102.398438 206.398438 101.988281 C 197.996094 101.601562 191.9375 100.605469 184.824219 99.832031 C 182.375 99.566406 183.421875 104.273438 184.078125 105.410156 C 185.402344 107.707031 187.28125 108.46875 193.976562 110.4375 C 193.976562 110.4375 188.617188 110.429688 183.140625 107.351562 C 181.898438 109.59375 181.214844 112.539062 180.980469 115.886719 C 185.367188 120.417969 184.425781 125.796875 184.425781 125.796875 C 184.207031 120.992188 180.886719 118.542969 180.886719 118.542969 C 179.101562 119.671875 177.820312 122.722656 177.820312 126.308594 C 177.820312 130.851562 179.875 134.535156 182.40625 134.535156 C 182.648438 134.535156 182.886719 134.5 183.117188 134.4375 C 185.097656 141.960938 188.203125 149.011719 191.664062 153.1875 C 189.828125 154.960938 188.078125 156.65625 186.449219 157.921875 C 196.738281 157.449219 204.746094 164.570312 204.746094 164.570312 C 204.746094 164.570312 190.503906 155.90625 179.476562 162.28125 C 164.195312 171.113281 147.621094 164.570312 147.621094 164.570312 C 147.621094 164.570312 162.59375 167.269531 178.457031 159.898438 C 178.796875 159.738281 179.136719 159.59375 179.472656 159.457031 C 171.164062 156.253906 163.457031 151.449219 143.386719 161.191406 C 143.386719 161.191406 138.183594 163.378906 135.207031 167.992188 C 135.207031 167.992188 136.019531 163.789062 140.5625 160.007812 C 136.578125 158.597656 129.082031 156.886719 122.628906 160.808594 C 122.628906 160.808594 117.421875 163 114.445312 167.613281 C 114.445312 167.613281 116.707031 162.003906 123.03125 157.921875 C 123.980469 152.214844 126.941406 139.367188 135.066406 131.484375 C 135.445312 131.113281 135.789062 130.792969 136.121094 130.511719 C 133.503906 131 131.394531 132.039062 131.394531 132.039062 C 135.628906 128.109375 139.421875 129.691406 142.1875 129.453125 C 145.460938 129.171875 149.386719 130.839844 151.386719 130.550781 C 154.070312 130.15625 158.285156 129.691406 159.324219 129.113281 C 162.214844 127.503906 160.234375 124.199219 157.964844 124.09375 C 155.007812 123.957031 163.410156 124.183594 163.179688 120.785156 C 162.820312 115.523438 163.410156 113.851562 161.863281 111.78125 C 161.164062 110.855469 154.078125 104.414062 151.90625 104.417969 C 146.023438 104.433594 137.054688 109.929688 132.234375 112.105469 C 128.160156 113.941406 126.285156 117.640625 124.488281 120.578125 C 121.054688 126.179688 91.652344 162.808594 91.953125 173.902344 C 92.28125 185.964844 116.121094 198.394531 140.289062 190.335938 C 140.289062 190.335938 146.03125 187.667969 149.234375 185.289062 C 149.234375 185.289062 145.78125 189.292969 141.535156 191.941406 C 142.894531 193.671875 144.515625 195.921875 146.316406 198.53125 C 152.058594 205.738281 162.644531 216.996094 176.296875 222.582031 C 176.296875 222.582031 168.976562 221.671875 158.832031 217.617188 C 161.117188 221.203125 163.417969 224.839844 165.640625 228.347656 C 168.371094 232.65625 171.898438 236.410156 176.070312 239.347656 C 179.640625 241.863281 183.554688 244.121094 187.761719 245.84375 C 187.761719 245.84375 182.488281 245.183594 174.691406 242.511719 C 177.058594 246.144531 179.046875 249.09375 180.4375 250.941406 C 183.867188 255.503906 189.5 259.765625 187.984375 273.1875 L 219.359375 213.964844 " fill-opacity="1" fill-rule="nonzero"/></g><path fill="#322f30" d="M 288.3125 120.578125 C 286.515625 117.640625 284.640625 113.941406 280.566406 112.105469 C 275.746094 109.929688 266.773438 104.433594 260.890625 104.417969 C 258.722656 104.414062 251.632812 110.855469 250.9375 111.78125 C 249.386719 113.851562 249.980469 115.523438 249.621094 120.785156 C 249.386719 124.183594 257.789062 123.957031 254.835938 124.09375 C 252.5625 124.199219 250.585938 127.503906 253.472656 129.113281 C 254.515625 129.691406 258.730469 130.15625 261.414062 130.550781 C 263.414062 130.839844 267.335938 129.171875 270.613281 129.453125 C 273.375 129.691406 277.171875 128.109375 281.402344 132.039062 C 281.402344 132.039062 279.292969 131 276.679688 130.511719 C 277.007812 130.792969 277.355469 131.113281 277.734375 131.484375 C 285.859375 139.367188 288.816406 152.214844 289.769531 157.921875 C 296.089844 162.003906 298.351562 167.613281 298.351562 167.613281 C 295.375 163 290.167969 160.808594 290.167969 160.808594 C 283.71875 156.886719 276.222656 158.597656 272.238281 160.007812 C 276.777344 163.789062 277.59375 167.992188 277.59375 167.992188 C 274.617188 163.378906 269.410156 161.191406 269.410156 161.191406 C 260.445312 156.839844 253.949219 155.386719 248.761719 155.40625 L 244.761719 162.488281 C 257.878906 166.546875 268.859375 164.570312 268.859375 164.570312 C 268.859375 164.570312 256.503906 169.445312 243.289062 165.09375 L 227.261719 193.476562 L 244.148438 209.652344 L 199.183594 260.660156 C 199.183594 260.660156 232.625 275.679688 255.542969 261.480469 C 240.15625 247.390625 238.632812 240.449219 240.8125 232.648438 C 243.765625 222.074219 261.875 194.117188 261.875 194.117188 C 286.042969 202.179688 320.519531 185.964844 320.84375 173.902344 C 321.144531 162.808594 291.742188 126.179688 288.3125 120.578125 " fill-opacity="1" fill-rule="nonzero"/><g fill="#322f30" fill-opacity="1"><g transform="translate(13.967387, 343.528624)"><g><path d="M 46.144531 -24.765625 C 45.050781 -32.902344 36.863281 -38.84375 24.871094 -38.84375 C 10.949219 -38.84375 2.191406 -30.917969 2.191406 -18.925781 C 2.191406 -6.882812 11.417969 0.992188 24.351562 0.992188 C 30.1875 0.992188 34.726562 -0.730469 38.324219 -4.277344 L 38.84375 0 L 46.039062 0 L 46.039062 -20.699219 L 27.375 -20.699219 L 27.375 -12.929688 L 35.976562 -12.929688 C 34.257812 -9.230469 30.1875 -6.777344 24.871094 -6.777344 C 17.3125 -6.777344 12.617188 -11.367188 12.617188 -18.925781 C 12.617188 -26.488281 17.3125 -31.074219 24.871094 -31.074219 C 30.503906 -31.074219 34.101562 -28.988281 35.820312 -24.765625 Z M 46.144531 -24.765625 "/></g></g></g><g fill="#322f30" fill-opacity="1"><g transform="translate(66.62342, 343.528624)"><g><path d="M -1.042969 -37.855469 L 15.484375 -16.164062 L 15.484375 0 L 24.976562 0 L 24.976562 -16.164062 L 41.816406 -37.855469 L 29.824219 -37.855469 L 20.4375 -24.351562 L 11 -37.855469 Z M -1.042969 -37.855469 "/></g></g></g><g fill="#322f30" fill-opacity="1"><g transform="translate(109.999577, 343.528624)"><g><path d="M 4.222656 -37.855469 L 4.222656 0 L 13.347656 0 L 13.347656 -25.707031 L 24.609375 0 L 32.484375 0 L 44.214844 -25.289062 L 44.214844 0 L 53.339844 0 L 53.339844 -37.855469 L 41.191406 -37.855469 L 28.675781 -10.742188 L 16.476562 -37.855469 Z M 4.222656 -37.855469 "/></g></g></g><g fill="#322f30" fill-opacity="1"><g transform="translate(170.162922, 343.528624)"><g><path d="M 40.667969 -26.226562 C 40.667969 -34.152344 33.890625 -38.84375 21.792969 -38.84375 C 10.375 -38.84375 3.546875 -33.371094 3.546875 -26.277344 C 3.546875 -19.867188 8.238281 -16.632812 17.882812 -15.640625 L 24.558594 -14.964844 C 29.667969 -14.441406 32.015625 -13.765625 32.015625 -10.84375 C 32.015625 -7.925781 28.988281 -6.203125 23.359375 -6.203125 C 16.058594 -6.203125 12.304688 -8.5 12.355469 -13.085938 L 2.660156 -13.085938 C 2.660156 -3.648438 9.4375 0.992188 22.210938 0.992188 C 35.507812 0.992188 42.339844 -3.597656 42.339844 -11.886719 C 42.339844 -18.5625 37.75 -21.949219 28.261719 -22.992188 L 21.222656 -23.722656 C 15.796875 -24.296875 13.554688 -24.714844 13.554688 -27.53125 C 13.554688 -30.1875 16.476562 -31.859375 21.949219 -31.859375 C 27.738281 -31.859375 30.816406 -29.980469 31.230469 -26.226562 Z M 40.667969 -26.226562 "/></g></g></g><g fill="#322f30" fill-opacity="1"><g transform="translate(217.761947, 343.528624)"><g><path d="M 13.714844 -37.855469 L 4.222656 -37.855469 L 4.222656 0 L 13.714844 0 L 13.714844 -16.007812 L 31.910156 -16.007812 L 31.910156 0 L 41.398438 0 L 41.398438 -37.855469 L 31.910156 -37.855469 L 31.910156 -23.777344 L 13.714844 -23.777344 Z M 13.714844 -37.855469 "/></g></g></g><g fill="#322f30" fill-opacity="1"><g transform="translate(265.986566, 343.528624)"><g><path d="M 24.871094 -38.84375 C 10.949219 -38.84375 2.191406 -30.917969 2.191406 -18.925781 C 2.191406 -6.933594 10.949219 0.992188 24.871094 0.992188 C 38.792969 0.992188 47.5 -6.933594 47.5 -18.925781 C 47.5 -30.917969 38.792969 -38.84375 24.871094 -38.84375 Z M 24.871094 -31.074219 C 32.429688 -31.074219 37.070312 -26.539062 37.070312 -18.925781 C 37.070312 -11.367188 32.429688 -6.777344 24.871094 -6.777344 C 17.3125 -6.777344 12.617188 -11.367188 12.617188 -18.925781 C 12.617188 -26.488281 17.3125 -31.074219 24.871094 -31.074219 Z M 24.871094 -31.074219 "/></g></g></g><g fill="#322f30" fill-opacity="1"><g transform="translate(318.277659, 343.528624)"><g><path d="M 4.222656 0 L 13.714844 0 L 13.714844 -11.886719 L 26.644531 -11.886719 C 35.507812 -11.886719 40.566406 -16.945312 40.566406 -24.976562 C 40.566406 -32.953125 35.507812 -37.855469 26.644531 -37.855469 L 4.222656 -37.855469 Z M 13.714844 -30.085938 L 23.046875 -30.085938 C 28.675781 -30.085938 31.074219 -29.148438 31.074219 -24.820312 C 31.074219 -20.648438 28.3125 -19.65625 22.421875 -19.65625 L 13.714844 -19.65625 Z M 13.714844 -30.085938 "/></g></g></g><g fill="#ac1929" fill-opacity="1"><g transform="translate(87.845854, 370.962796)"><g><path d="M 3.609375 0.03125 C 2.867188 0.03125 2.3125 -0.15625 1.9375 -0.53125 C 1.5625 -0.90625 1.375 -1.460938 1.375 -2.203125 L 1.375 -6.71875 C 1.375 -7.457031 1.5625 -8.015625 1.9375 -8.390625 C 2.3125 -8.773438 2.867188 -8.96875 3.609375 -8.96875 L 8.3125 -8.96875 C 9.0625 -8.96875 9.625 -8.773438 10 -8.390625 C 10.375 -8.015625 10.5625 -7.457031 10.5625 -6.71875 L 10.5625 -2.203125 C 10.5625 -1.460938 10.375 -0.90625 10 -0.53125 C 9.625 -0.15625 9.0625 0.03125 8.3125 0.03125 Z M 8.1875 -0.9375 C 8.632812 -0.9375 8.960938 -1.039062 9.171875 -1.25 C 9.390625 -1.457031 9.5 -1.789062 9.5 -2.25 L 9.5 -6.6875 C 9.5 -7.132812 9.390625 -7.460938 9.171875 -7.671875 C 8.960938 -7.890625 8.632812 -8 8.1875 -8 L 3.75 -8 C 3.300781 -8 2.96875 -7.890625 2.75 -7.671875 C 2.539062 -7.460938 2.4375 -7.132812 2.4375 -6.6875 L 2.4375 -2.25 C 2.4375 -1.789062 2.539062 -1.457031 2.75 -1.25 C 2.96875 -1.039062 3.300781 -0.9375 3.75 -0.9375 Z M 8.1875 -0.9375 "/></g></g></g><g fill="#ac1929" fill-opacity="1"><g transform="translate(107.186146, 370.962796)"><g><path d="M 1.625 0 C 1.519531 0 1.46875 -0.0546875 1.46875 -0.171875 L 1.46875 -8.765625 C 1.46875 -8.867188 1.519531 -8.921875 1.625 -8.921875 L 2.46875 -8.921875 C 2.539062 -8.921875 2.597656 -8.910156 2.640625 -8.890625 C 2.679688 -8.867188 2.726562 -8.828125 2.78125 -8.765625 L 8.953125 -1.5625 L 9.015625 -1.5625 L 9.015625 -8.765625 C 9.015625 -8.867188 9.070312 -8.921875 9.1875 -8.921875 L 9.90625 -8.921875 C 10.019531 -8.921875 10.078125 -8.867188 10.078125 -8.765625 L 10.078125 -0.171875 C 10.078125 -0.0546875 10.019531 0 9.90625 0 L 9.109375 0 C 9.035156 0 8.972656 -0.0078125 8.921875 -0.03125 C 8.878906 -0.0507812 8.832031 -0.09375 8.78125 -0.15625 L 2.59375 -7.40625 L 2.53125 -7.40625 L 2.53125 -0.171875 C 2.53125 -0.0546875 2.472656 0 2.359375 0 Z M 1.625 0 "/></g></g></g><g fill="#ac1929" fill-opacity="1"><g transform="translate(126.143967, 370.962796)"><g><path d="M 1.625 0 C 1.519531 0 1.46875 -0.0546875 1.46875 -0.171875 L 1.46875 -8.765625 C 1.46875 -8.867188 1.519531 -8.921875 1.625 -8.921875 L 2.359375 -8.921875 C 2.472656 -8.921875 2.53125 -8.867188 2.53125 -8.765625 L 2.53125 -1 L 8.484375 -1 C 8.597656 -1 8.65625 -0.945312 8.65625 -0.84375 L 8.65625 -0.171875 C 8.65625 -0.0546875 8.597656 0 8.484375 0 Z M 1.625 0 "/></g></g></g><g fill="#ac1929" fill-opacity="1"><g transform="translate(142.539224, 370.962796)"><g><path d="M 4.6875 -7.984375 L 4.6875 -0.9375 L 7.328125 -0.9375 C 7.441406 -0.9375 7.5 -0.882812 7.5 -0.78125 L 7.5 -0.171875 C 7.5 -0.0546875 7.441406 0 7.328125 0 L 1 0 C 0.882812 0 0.828125 -0.0546875 0.828125 -0.171875 L 0.828125 -0.78125 C 0.828125 -0.882812 0.882812 -0.9375 1 -0.9375 L 3.640625 -0.9375 L 3.640625 -7.984375 L 1 -7.984375 C 0.882812 -7.984375 0.828125 -8.039062 0.828125 -8.15625 L 0.828125 -8.765625 C 0.828125 -8.867188 0.882812 -8.921875 1 -8.921875 L 7.328125 -8.921875 C 7.441406 -8.921875 7.5 -8.867188 7.5 -8.765625 L 7.5 -8.15625 C 7.5 -8.039062 7.441406 -7.984375 7.328125 -7.984375 Z M 4.6875 -7.984375 "/></g></g></g><g fill="#ac1929" fill-opacity="1"><g transform="translate(158.271524, 370.962796)"><g><path d="M 1.625 0 C 1.519531 0 1.46875 -0.0546875 1.46875 -0.171875 L 1.46875 -8.765625 C 1.46875 -8.867188 1.519531 -8.921875 1.625 -8.921875 L 2.46875 -8.921875 C 2.539062 -8.921875 2.597656 -8.910156 2.640625 -8.890625 C 2.679688 -8.867188 2.726562 -8.828125 2.78125 -8.765625 L 8.953125 -1.5625 L 9.015625 -1.5625 L 9.015625 -8.765625 C 9.015625 -8.867188 9.070312 -8.921875 9.1875 -8.921875 L 9.90625 -8.921875 C 10.019531 -8.921875 10.078125 -8.867188 10.078125 -8.765625 L 10.078125 -0.171875 C 10.078125 -0.0546875 10.019531 0 9.90625 0 L 9.109375 0 C 9.035156 0 8.972656 -0.0078125 8.921875 -0.03125 C 8.878906 -0.0507812 8.832031 -0.09375 8.78125 -0.15625 L 2.59375 -7.40625 L 2.53125 -7.40625 L 2.53125 -0.171875 C 2.53125 -0.0546875 2.472656 0 2.359375 0 Z M 1.625 0 "/></g></g></g><g fill="#ac1929" fill-opacity="1"><g transform="translate(177.229345, 370.962796)"><g><path d="M 8.875 -0.9375 C 8.988281 -0.9375 9.046875 -0.882812 9.046875 -0.78125 L 9.046875 -0.171875 C 9.046875 -0.0546875 8.988281 0 8.875 0 L 1.625 0 C 1.519531 0 1.46875 -0.0546875 1.46875 -0.171875 L 1.46875 -8.765625 C 1.46875 -8.867188 1.519531 -8.921875 1.625 -8.921875 L 8.75 -8.921875 C 8.851562 -8.921875 8.90625 -8.867188 8.90625 -8.765625 L 8.90625 -8.15625 C 8.90625 -8.039062 8.851562 -7.984375 8.75 -7.984375 L 2.53125 -7.984375 L 2.53125 -4.96875 L 7.3125 -4.96875 C 7.4375 -4.96875 7.5 -4.914062 7.5 -4.8125 L 7.5 -4.1875 C 7.5 -4.082031 7.4375 -4.03125 7.3125 -4.03125 L 2.53125 -4.03125 L 2.53125 -0.9375 Z M 8.875 -0.9375 "/></g></g></g><g fill="#ac1929" fill-opacity="1"><g transform="translate(194.466043, 370.962796)"><g/></g></g><g fill="#ac1929" fill-opacity="1"><g transform="translate(205.366442, 370.962796)"><g><path d="M 3.265625 0.03125 C 2.546875 0.03125 2.023438 -0.128906 1.703125 -0.453125 C 1.378906 -0.773438 1.21875 -1.300781 1.21875 -2.03125 L 1.21875 -2.59375 C 1.21875 -2.71875 1.269531 -2.78125 1.375 -2.78125 L 2.109375 -2.78125 C 2.222656 -2.78125 2.28125 -2.71875 2.28125 -2.59375 L 2.28125 -2.03125 C 2.28125 -1.644531 2.367188 -1.363281 2.546875 -1.1875 C 2.722656 -1.007812 3.003906 -0.921875 3.390625 -0.921875 L 7.28125 -0.921875 C 7.664062 -0.921875 7.953125 -1.007812 8.140625 -1.1875 C 8.328125 -1.363281 8.421875 -1.644531 8.421875 -2.03125 L 8.421875 -2.84375 C 8.421875 -3.238281 8.328125 -3.523438 8.140625 -3.703125 C 7.953125 -3.878906 7.664062 -3.96875 7.28125 -3.96875 L 3.453125 -3.96875 C 2.742188 -3.96875 2.222656 -4.128906 1.890625 -4.453125 C 1.566406 -4.785156 1.40625 -5.304688 1.40625 -6.015625 L 1.40625 -6.90625 C 1.40625 -7.632812 1.566406 -8.160156 1.890625 -8.484375 C 2.222656 -8.804688 2.742188 -8.96875 3.453125 -8.96875 L 6.96875 -8.96875 C 7.6875 -8.96875 8.207031 -8.804688 8.53125 -8.484375 C 8.863281 -8.160156 9.03125 -7.632812 9.03125 -6.90625 L 9.03125 -6.359375 C 9.03125 -6.253906 8.96875 -6.203125 8.84375 -6.203125 L 8.140625 -6.203125 C 8.023438 -6.203125 7.96875 -6.253906 7.96875 -6.359375 L 7.96875 -6.890625 C 7.96875 -7.285156 7.875 -7.570312 7.6875 -7.75 C 7.507812 -7.925781 7.222656 -8.015625 6.828125 -8.015625 L 3.578125 -8.015625 C 3.203125 -8.015625 2.921875 -7.925781 2.734375 -7.75 C 2.554688 -7.570312 2.46875 -7.285156 2.46875 -6.890625 L 2.46875 -6.03125 C 2.46875 -5.632812 2.554688 -5.347656 2.734375 -5.171875 C 2.921875 -4.992188 3.203125 -4.90625 3.578125 -4.90625 L 7.40625 -4.90625 C 8.125 -4.90625 8.644531 -4.742188 8.96875 -4.421875 C 9.300781 -4.097656 9.46875 -3.578125 9.46875 -2.859375 L 9.46875 -2.03125 C 9.46875 -1.300781 9.300781 -0.773438 8.96875 -0.453125 C 8.644531 -0.128906 8.125 0.03125 7.40625 0.03125 Z M 3.265625 0.03125 "/></g></g></g><g fill="#ac1929" fill-opacity="1"><g transform="translate(223.278837, 370.962796)"><g><path d="M 8.96875 -8.921875 C 9.070312 -8.921875 9.125 -8.867188 9.125 -8.765625 L 9.125 -8.078125 C 9.125 -7.972656 9.070312 -7.921875 8.96875 -7.921875 L 5.234375 -7.921875 L 5.234375 -0.171875 C 5.234375 -0.0546875 5.175781 0 5.0625 0 L 4.34375 0 C 4.226562 0 4.171875 -0.0546875 4.171875 -0.171875 L 4.171875 -7.921875 L 0.453125 -7.921875 C 0.335938 -7.921875 0.28125 -7.972656 0.28125 -8.078125 L 0.28125 -8.765625 C 0.28125 -8.867188 0.335938 -8.921875 0.453125 -8.921875 Z M 8.96875 -8.921875 "/></g></g></g><g fill="#ac1929" fill-opacity="1"><g transform="translate(240.094797, 370.962796)"><g><path d="M 3.609375 0.03125 C 2.867188 0.03125 2.3125 -0.15625 1.9375 -0.53125 C 1.5625 -0.90625 1.375 -1.460938 1.375 -2.203125 L 1.375 -6.71875 C 1.375 -7.457031 1.5625 -8.015625 1.9375 -8.390625 C 2.3125 -8.773438 2.867188 -8.96875 3.609375 -8.96875 L 8.3125 -8.96875 C 9.0625 -8.96875 9.625 -8.773438 10 -8.390625 C 10.375 -8.015625 10.5625 -7.457031 10.5625 -6.71875 L 10.5625 -2.203125 C 10.5625 -1.460938 10.375 -0.90625 10 -0.53125 C 9.625 -0.15625 9.0625 0.03125 8.3125 0.03125 Z M 8.1875 -0.9375 C 8.632812 -0.9375 8.960938 -1.039062 9.171875 -1.25 C 9.390625 -1.457031 9.5 -1.789062 9.5 -2.25 L 9.5 -6.6875 C 9.5 -7.132812 9.390625 -7.460938 9.171875 -7.671875 C 8.960938 -7.890625 8.632812 -8 8.1875 -8 L 3.75 -8 C 3.300781 -8 2.96875 -7.890625 2.75 -7.671875 C 2.539062 -7.460938 2.4375 -7.132812 2.4375 -6.6875 L 2.4375 -2.25 C 2.4375 -1.789062 2.539062 -1.457031 2.75 -1.25 C 2.96875 -1.039062 3.300781 -0.9375 3.75 -0.9375 Z M 8.1875 -0.9375 "/></g></g></g><g fill="#ac1929" fill-opacity="1"><g transform="translate(259.435096, 370.962796)"><g><path d="M 5.734375 -3.859375 L 5.734375 -3.796875 L 9.21875 -0.3125 C 9.28125 -0.257812 9.3125 -0.203125 9.3125 -0.140625 C 9.3125 -0.0976562 9.289062 -0.0625 9.25 -0.03125 C 9.21875 -0.0078125 9.171875 0 9.109375 0 L 8.3125 0 C 8.195312 0 8.09375 -0.046875 8 -0.140625 L 4.25 -3.859375 L 2.53125 -3.859375 L 2.53125 -0.171875 C 2.53125 -0.0546875 2.472656 0 2.359375 0 L 1.625 0 C 1.519531 0 1.46875 -0.0546875 1.46875 -0.171875 L 1.46875 -8.765625 C 1.46875 -8.867188 1.519531 -8.921875 1.625 -8.921875 L 7.3125 -8.921875 C 8.03125 -8.921875 8.550781 -8.757812 8.875 -8.4375 C 9.195312 -8.113281 9.359375 -7.59375 9.359375 -6.875 L 9.359375 -5.921875 C 9.359375 -5.191406 9.195312 -4.664062 8.875 -4.34375 C 8.550781 -4.019531 8.03125 -3.859375 7.3125 -3.859375 Z M 2.53125 -7.984375 L 2.53125 -4.796875 L 7.171875 -4.796875 C 7.566406 -4.796875 7.851562 -4.882812 8.03125 -5.0625 C 8.207031 -5.25 8.296875 -5.535156 8.296875 -5.921875 L 8.296875 -6.875 C 8.296875 -7.257812 8.207031 -7.539062 8.03125 -7.71875 C 7.851562 -7.894531 7.566406 -7.984375 7.171875 -7.984375 Z M 2.53125 -7.984375 "/></g></g></g><g fill="#ac1929" fill-opacity="1"><g transform="translate(277.3475, 370.962796)"><g><path d="M 8.875 -0.9375 C 8.988281 -0.9375 9.046875 -0.882812 9.046875 -0.78125 L 9.046875 -0.171875 C 9.046875 -0.0546875 8.988281 0 8.875 0 L 1.625 0 C 1.519531 0 1.46875 -0.0546875 1.46875 -0.171875 L 1.46875 -8.765625 C 1.46875 -8.867188 1.519531 -8.921875 1.625 -8.921875 L 8.75 -8.921875 C 8.851562 -8.921875 8.90625 -8.867188 8.90625 -8.765625 L 8.90625 -8.15625 C 8.90625 -8.039062 8.851562 -7.984375 8.75 -7.984375 L 2.53125 -7.984375 L 2.53125 -4.96875 L 7.3125 -4.96875 C 7.4375 -4.96875 7.5 -4.914062 7.5 -4.8125 L 7.5 -4.1875 C 7.5 -4.082031 7.4375 -4.03125 7.3125 -4.03125 L 2.53125 -4.03125 L 2.53125 -0.9375 Z M 8.875 -0.9375 "/></g></g></g></svg>