<svg xmlns="http://www.w3.org/2000/svg" xmlns:xlink="http://www.w3.org/1999/xlink" width="500" zoomAndPan="magnify" viewBox="0 0 375 374.999991" height="500" preserveAspectRatio="xMidYMid meet" version="1.0"><defs><clipPath id="5c5c95672f"><path d="M 58 49.855469 L 316 49.855469 L 316 315 L 58 315 Z M 58 49.855469 " clip-rule="nonzero"/></clipPath><clipPath id="cabba757e7"><path d="M 58 49.855469 L 183 49.855469 L 183 315 L 58 315 Z M 58 49.855469 " clip-rule="nonzero"/></clipPath><clipPath id="4a187e2858"><path d="M 77 49.855469 L 298 49.855469 L 298 89 L 77 89 Z M 77 49.855469 " clip-rule="nonzero"/></clipPath><clipPath id="80a35b412e"><path d="M 79 49.855469 L 296 49.855469 L 296 82 L 79 82 Z M 79 49.855469 " clip-rule="nonzero"/></clipPath></defs><g clip-path="url(#5c5c95672f)"><path fill="#000000" d="M 283.808594 49.859375 L 91.066406 49.859375 C 91.066406 49.859375 54.339844 113.492188 59.472656 305.882812 C 59.472656 305.882812 97.089844 325.121094 168.164062 305.882812 L 177.078125 237.800781 C 177.078125 237.800781 181.859375 231.207031 187.4375 230.621094 C 193.019531 231.207031 197.804688 237.800781 197.804688 237.800781 L 206.71875 305.882812 C 277.792969 325.121094 315.410156 305.882812 315.410156 305.882812 C 320.539062 113.492188 283.808594 49.859375 283.808594 49.859375 " fill-opacity="1" fill-rule="nonzero"/></g><path fill="#ffffff" d="M 266.484375 314.433594 C 250.386719 314.433594 230.410156 312.296875 206.71875 305.882812 L 200.261719 256.589844 L 206.71875 305.882812 C 230.410156 312.296875 250.386719 314.433594 266.484375 314.433594 C 298.691406 314.433594 315.410156 305.882812 315.410156 305.882812 C 315.410156 305.882812 298.691406 314.433594 266.484375 314.433594 " fill-opacity="1" fill-rule="nonzero"/><path fill="#000000" d="M 266.484375 314.433594 C 250.386719 314.433594 230.410156 312.296875 206.71875 305.882812 L 200.261719 256.589844 C 206.769531 262.523438 216.265625 266.714844 222.667969 269.339844 C 234.394531 274.152344 246.328125 277.238281 258.445312 277.238281 C 265.605469 277.238281 272.828125 276.160156 280.113281 273.71875 C 296.941406 268.082031 308.347656 256.152344 315.566406 241.5 C 316.035156 261.152344 316.03125 282.5625 315.410156 305.882812 C 315.410156 305.882812 298.691406 314.433594 266.484375 314.433594 " fill-opacity="1" fill-rule="nonzero"/><g clip-path="url(#cabba757e7)"><path fill="#000000" d="M 108.394531 314.433594 C 76.195312 314.433594 59.472656 305.882812 59.472656 305.882812 C 59.136719 293.339844 58.980469 281.347656 58.980469 269.882812 C 58.976562 105.46875 91.066406 49.859375 91.066406 49.859375 L 182.726562 49.859375 C 157.757812 64.035156 137.332031 88.101562 123.808594 112.078125 C 109.671875 137.128906 105.273438 165.855469 102.792969 194.117188 C 100.433594 220.964844 99.203125 252.480469 111.699219 277.234375 C 118.050781 289.808594 129.324219 295.320312 141.242188 295.320312 C 151.589844 295.320312 162.429688 291.164062 170.964844 283.875 L 171.054688 283.792969 L 168.164062 305.882812 C 144.46875 312.296875 124.5 314.433594 108.394531 314.433594 " fill-opacity="1" fill-rule="nonzero"/></g><g clip-path="url(#4a187e2858)"><path fill="#ffffff" d="M 297.488281 88.648438 C 290.332031 61.203125 283.808594 49.859375 283.808594 49.859375 L 91.066406 49.859375 C 91.066406 49.859375 84.550781 61.203125 77.390625 88.648438 L 297.488281 88.648438 " fill-opacity="1" fill-rule="nonzero"/></g><g clip-path="url(#80a35b412e)"><path fill="#000000" d="M 295.671875 81.964844 C 289.265625 59.359375 283.808594 49.859375 283.808594 49.859375 L 91.066406 49.859375 C 91.066406 49.859375 85.617188 59.359375 79.207031 81.964844 L 295.671875 81.964844 " fill-opacity="1" fill-rule="nonzero"/></g><path fill="#ffffff" d="M 95.28125 87.703125 C 82.179688 135.726562 77 186.273438 75.496094 235.792969 C 75.238281 244.082031 75.113281 252.371094 75.113281 260.660156 C 75.113281 277.105469 75.605469 293.546875 76.578125 309.957031 C 76.617188 310.660156 77.21875 311.191406 77.921875 311.152344 C 78.617188 311.109375 79.15625 310.511719 79.113281 309.808594 C 78.144531 293.445312 77.652344 277.054688 77.652344 260.660156 C 77.652344 252.394531 77.777344 244.132812 78.03125 235.871094 C 79.53125 186.472656 84.703125 136.121094 97.726562 88.371094 C 97.910156 87.699219 97.511719 87 96.835938 86.816406 C 96.160156 86.628906 95.460938 87.03125 95.28125 87.703125 " fill-opacity="1" fill-rule="nonzero"/><path fill="#ffffff" d="M 83.722656 87.625 C 69.21875 144.554688 63.570312 201.050781 63.570312 258.082031 C 63.570312 274.285156 64.027344 290.523438 64.863281 306.832031 C 64.902344 307.535156 65.5 308.074219 66.199219 308.035156 C 66.898438 308 67.4375 307.40625 67.402344 306.703125 C 66.566406 290.429688 66.109375 274.234375 66.109375 258.082031 C 66.109375 201.21875 71.742188 144.945312 86.183594 88.25 C 86.359375 87.574219 85.949219 86.882812 85.269531 86.710938 C 84.589844 86.535156 83.898438 86.945312 83.726562 87.625 " fill-opacity="1" fill-rule="nonzero"/><path fill="#ffffff" d="M 277.140625 88.324219 C 290.085938 144.628906 297.808594 201.746094 297.808594 259.273438 C 297.808594 276.074219 297.152344 292.914062 295.769531 309.78125 C 295.714844 310.480469 296.234375 311.09375 296.933594 311.148438 C 297.632812 311.207031 298.242188 310.683594 298.300781 309.988281 C 299.6875 293.050781 300.347656 276.140625 300.347656 259.273438 C 300.347656 201.519531 292.59375 144.207031 279.613281 87.753906 C 279.460938 87.070312 278.773438 86.648438 278.09375 86.800781 C 277.410156 86.960938 276.984375 87.640625 277.140625 88.324219 " fill-opacity="1" fill-rule="nonzero"/><path fill="#ffffff" d="M 288.699219 88.273438 C 301.378906 134.390625 306.285156 183.09375 308.019531 230.824219 C 308.398438 241.277344 308.589844 251.742188 308.589844 262.207031 C 308.589844 277.042969 308.210938 291.886719 307.476562 306.707031 C 307.445312 307.40625 307.984375 308 308.683594 308.035156 C 309.386719 308.074219 309.980469 307.53125 310.015625 306.832031 C 310.746094 291.96875 311.128906 277.085938 311.128906 262.207031 C 311.128906 251.710938 310.9375 241.21875 310.558594 230.730469 C 308.816406 182.886719 303.902344 134 291.152344 87.601562 C 290.964844 86.925781 290.265625 86.527344 289.589844 86.710938 C 288.910156 86.898438 288.515625 87.597656 288.699219 88.273438 " fill-opacity="1" fill-rule="nonzero"/></svg>