<svg xmlns="http://www.w3.org/2000/svg" xmlns:xlink="http://www.w3.org/1999/xlink" width="500" zoomAndPan="magnify" viewBox="0 0 375 374.999991" height="500" preserveAspectRatio="xMidYMid meet" version="1.0"><defs><clipPath id="a291d30308"><path d="M 85.230469 38.472656 L 289.980469 38.472656 L 289.980469 336.222656 L 85.230469 336.222656 Z M 85.230469 38.472656 " clip-rule="nonzero"/></clipPath></defs><g clip-path="url(#a291d30308)"><path fill="#000000" d="M 117.917969 38.585938 L 136.078125 38.585938 C 137.230469 38.585938 138.195312 39.457031 138.316406 40.597656 L 144.582031 100.917969 C 146.867188 122.917969 165.445312 139.632812 187.605469 139.632812 C 209.765625 139.632812 228.34375 122.917969 230.628906 100.917969 L 236.894531 40.597656 C 237.015625 39.457031 237.980469 38.585938 239.132812 38.585938 L 257.292969 38.585938 C 262.265625 38.585938 266.292969 42.605469 266.292969 47.566406 C 266.292969 47.9375 266.269531 48.308594 266.222656 48.675781 L 261.644531 85.457031 C 258.269531 112.574219 268.945312 139.542969 289.980469 157.035156 L 289.980469 336.109375 L 85.230469 336.109375 L 85.230469 157.035156 C 106.265625 139.542969 116.941406 112.574219 113.566406 85.457031 L 108.984375 48.675781 C 108.375 43.753906 111.875 39.265625 116.808594 38.652344 C 117.175781 38.609375 117.546875 38.585938 117.917969 38.585938 Z M 117.917969 38.585938 " fill-opacity="1" fill-rule="evenodd"/></g></svg>