<svg xmlns="http://www.w3.org/2000/svg" xmlns:xlink="http://www.w3.org/1999/xlink" width="500" zoomAndPan="magnify" viewBox="0 0 375 374.999991" height="500" preserveAspectRatio="xMidYMid meet" version="1.0"><defs><clipPath id="83435d8759"><path d="M 34.242188 47.652344 L 340.992188 47.652344 L 340.992188 327.402344 L 34.242188 327.402344 Z M 34.242188 47.652344 " clip-rule="nonzero"/></clipPath></defs><g clip-path="url(#83435d8759)"><path fill="#000000" d="M 228.253906 47.625 C 220.417969 56.949219 154.886719 56.949219 147.046875 47.625 C 145.402344 47.625 34.246094 106.152344 34.246094 106.152344 L 60.132812 166.789062 L 97.605469 161.914062 L 97.605469 327.324219 L 277.695312 327.324219 L 277.695312 161.914062 L 315.167969 166.789062 L 341.058594 106.152344 C 341.03125 106.144531 229.882812 47.617188 228.238281 47.617188 Z M 149 61.917969 C 172.625 72.1875 207.554688 71.859375 226.304688 61.917969 C 215.0625 89.804688 169.039062 94.367188 149 61.917969 Z M 149 61.917969 " fill-opacity="1" fill-rule="evenodd"/></g></svg>