<svg xmlns="http://www.w3.org/2000/svg" xmlns:xlink="http://www.w3.org/1999/xlink" width="500" zoomAndPan="magnify" viewBox="0 0 375 374.999991" height="500" preserveAspectRatio="xMidYMid meet" version="1.0"><defs><clipPath id="95ff297bce"><path d="M 153 59.175781 L 220 59.175781 L 220 106 L 153 106 Z M 153 59.175781 " clip-rule="nonzero"/></clipPath><clipPath id="9f51edb962"><path d="M 94 85 L 279 85 L 279 315.675781 L 94 315.675781 Z M 94 85 " clip-rule="nonzero"/></clipPath></defs><path fill="#000000" d="M 163.355469 101.820312 C 160.226562 101.820312 157.582031 99.578125 157.0625 96.488281 C 155.742188 88.613281 157.871094 80.140625 162.746094 73.828125 C 168.273438 66.675781 176.917969 62.570312 186.46875 62.570312 C 196.007812 62.570312 204.644531 66.675781 210.171875 73.828125 C 215.050781 80.140625 217.175781 88.613281 215.855469 96.488281 C 215.339844 99.578125 212.695312 101.820312 209.5625 101.820312 C 209.210938 101.820312 208.859375 101.789062 208.507812 101.730469 C 206.824219 101.449219 205.351562 100.527344 204.363281 99.140625 C 203.371094 97.75 202.980469 96.058594 203.265625 94.375 C 204.007812 89.949219 202.8125 85.1875 200.070312 81.636719 C 196.980469 77.640625 192.023438 75.34375 186.46875 75.34375 C 180.902344 75.34375 175.9375 77.640625 172.851562 81.636719 C 170.109375 85.1875 168.914062 89.949219 169.65625 94.375 C 169.9375 96.054688 169.546875 97.75 168.558594 99.140625 C 167.566406 100.527344 166.097656 101.449219 164.414062 101.730469 C 164.066406 101.789062 163.710938 101.820312 163.355469 101.820312 " fill-opacity="1" fill-rule="nonzero"/><g clip-path="url(#95ff297bce)"><path fill="#545454" d="M 186.46875 59.183594 C 175.859375 59.183594 166.234375 63.765625 160.066406 71.753906 C 154.621094 78.804688 152.25 88.257812 153.71875 97.046875 C 154.515625 101.78125 158.566406 105.210938 163.355469 105.210938 C 163.898438 105.210938 164.445312 105.164062 164.976562 105.074219 C 167.550781 104.640625 169.800781 103.234375 171.316406 101.105469 C 172.832031 98.976562 173.429688 96.390625 172.996094 93.8125 C 172.414062 90.359375 173.386719 86.484375 175.53125 83.710938 C 177.972656 80.550781 181.960938 78.738281 186.46875 78.738281 C 190.964844 78.738281 194.945312 80.550781 197.386719 83.710938 C 199.53125 86.488281 200.503906 90.359375 199.921875 93.816406 C 199.492188 96.390625 200.085938 98.980469 201.601562 101.109375 C 203.117188 103.234375 205.371094 104.640625 207.941406 105.074219 C 208.480469 105.164062 209.023438 105.210938 209.5625 105.210938 C 214.355469 105.210938 218.40625 101.777344 219.199219 97.046875 C 220.667969 88.261719 218.296875 78.804688 212.851562 71.753906 C 206.679688 63.765625 197.0625 59.183594 186.46875 59.183594 Z M 186.46875 65.960938 C 194.949219 65.960938 202.609375 69.585938 207.488281 75.902344 C 211.800781 81.480469 213.679688 88.96875 212.515625 95.929688 C 212.269531 97.394531 210.996094 98.429688 209.5625 98.429688 C 209.398438 98.429688 209.234375 98.417969 209.066406 98.390625 C 207.433594 98.113281 206.332031 96.566406 206.605469 94.9375 C 207.5 89.597656 206.058594 83.851562 202.75 79.566406 C 199.015625 74.730469 193.082031 71.957031 186.46875 71.957031 C 179.84375 71.957031 173.902344 74.730469 170.167969 79.566406 C 166.859375 83.851562 165.417969 89.597656 166.3125 94.9375 C 166.585938 96.566406 165.484375 98.113281 163.855469 98.390625 C 163.683594 98.417969 163.519531 98.429688 163.355469 98.429688 C 161.917969 98.429688 160.648438 97.394531 160.402344 95.929688 C 159.238281 88.96875 161.117188 81.484375 165.425781 75.902344 C 170.304688 69.585938 177.976562 65.960938 186.46875 65.960938 " fill-opacity="1" fill-rule="nonzero"/></g><path fill="#000000" d="M 237.039062 310.394531 C 236.253906 310.394531 235.488281 310.121094 234.875 309.613281 C 234.101562 308.96875 233.652344 308.011719 233.652344 307.003906 L 233.652344 213.621094 C 233.652344 211.746094 235.167969 210.230469 237.039062 210.230469 L 282.621094 210.230469 C 284.335938 210.230469 285.78125 211.515625 285.984375 213.21875 L 291.5 259.578125 C 292.875 271.160156 287.953125 282.667969 277.636719 291.988281 C 267.886719 300.796875 253.691406 307.3125 237.667969 310.335938 C 237.457031 310.375 237.246094 310.394531 237.039062 310.394531 " fill-opacity="1" fill-rule="nonzero"/><path fill="#545454" d="M 282.621094 206.839844 L 237.039062 206.839844 C 233.296875 206.839844 230.261719 209.875 230.261719 213.621094 L 230.261719 307.003906 C 230.261719 309.023438 231.160156 310.9375 232.714844 312.222656 C 233.9375 313.242188 235.472656 313.785156 237.039062 313.785156 C 237.457031 313.785156 237.878906 313.746094 238.292969 313.667969 C 254.921875 310.53125 269.703125 303.722656 279.910156 294.503906 C 291.0625 284.425781 296.375 271.882812 294.863281 259.179688 L 289.351562 212.820312 C 288.945312 209.40625 286.054688 206.839844 282.621094 206.839844 Z M 282.621094 213.621094 L 288.132812 259.980469 C 290.738281 281.863281 268.519531 301.066406 237.039062 307.003906 L 237.039062 213.621094 L 282.621094 213.621094 " fill-opacity="1" fill-rule="nonzero"/><path fill="#000000" d="M 137.742188 310.394531 C 137.53125 310.394531 137.324219 310.375 137.113281 310.335938 C 121.089844 307.3125 106.890625 300.796875 97.140625 291.988281 C 86.824219 282.667969 81.902344 271.160156 83.28125 259.578125 L 88.792969 213.21875 C 88.996094 211.515625 90.441406 210.230469 92.15625 210.230469 L 137.742188 210.230469 C 139.613281 210.230469 141.128906 211.746094 141.128906 213.621094 L 141.128906 307.003906 C 141.128906 308.011719 140.679688 308.96875 139.902344 309.613281 C 139.289062 310.121094 138.523438 310.394531 137.742188 310.394531 " fill-opacity="1" fill-rule="nonzero"/><path fill="#545454" d="M 137.742188 206.839844 L 92.15625 206.839844 C 88.726562 206.839844 85.835938 209.40625 85.429688 212.820312 L 79.917969 259.179688 C 78.40625 271.878906 83.714844 284.425781 94.871094 294.503906 C 105.078125 303.722656 119.855469 310.53125 136.484375 313.667969 C 136.902344 313.746094 137.324219 313.785156 137.742188 313.785156 C 139.308594 313.785156 140.839844 313.242188 142.066406 312.222656 C 143.617188 310.9375 144.519531 309.023438 144.519531 307.003906 L 144.519531 213.621094 C 144.519531 209.875 141.484375 206.839844 137.742188 206.839844 Z M 137.742188 213.621094 L 137.742188 307.003906 C 106.261719 301.066406 84.042969 281.863281 86.644531 259.980469 L 92.15625 213.621094 L 137.742188 213.621094 " fill-opacity="1" fill-rule="nonzero"/><path fill="#000000" d="M 146.847656 312.296875 C 133.289062 312.296875 120.230469 306.59375 111.011719 296.648438 C 101.792969 286.707031 97.089844 273.25 98.109375 259.726562 L 105.28125 164.414062 C 106.898438 143.90625 116.097656 124.929688 131.1875 110.976562 C 146.28125 97.019531 165.910156 89.335938 186.460938 89.335938 C 207.011719 89.335938 226.640625 97.019531 241.730469 110.976562 C 256.820312 124.929688 266.019531 143.90625 267.636719 164.402344 L 274.808594 259.726562 C 275.828125 273.25 271.125 286.707031 261.90625 296.648438 C 252.6875 306.59375 239.628906 312.296875 226.070312 312.296875 L 146.847656 312.296875 " fill-opacity="1" fill-rule="nonzero"/><g clip-path="url(#9f51edb962)"><path fill="#545454" d="M 186.460938 85.945312 C 165.054688 85.945312 144.609375 93.953125 128.890625 108.488281 C 113.167969 123.023438 103.585938 142.789062 101.902344 164.136719 L 94.726562 259.46875 C 93.640625 273.933594 98.667969 288.324219 108.527344 298.957031 C 118.382812 309.585938 132.347656 315.6875 146.84375 315.6875 L 226.070312 315.6875 C 240.566406 315.6875 254.535156 309.585938 264.390625 298.957031 C 274.25 288.324219 279.277344 273.933594 278.1875 259.46875 L 271.011719 164.160156 C 269.328125 142.785156 259.746094 123.023438 244.027344 108.488281 C 228.308594 93.953125 207.863281 85.945312 186.460938 85.945312 Z M 186.460938 92.726562 C 227.179688 92.726562 261.054688 124.054688 264.257812 164.667969 L 271.429688 259.980469 C 273.417969 286.382812 252.539062 308.90625 226.070312 308.90625 L 146.84375 308.90625 C 120.375 308.90625 99.496094 286.382812 101.484375 259.980469 L 108.660156 164.667969 C 111.859375 124.054688 145.734375 92.726562 186.460938 92.726562 " fill-opacity="1" fill-rule="nonzero"/></g><path fill="#000000" d="M 155.734375 294.886719 C 145.007812 294.886719 134.675781 290.375 127.382812 282.507812 C 120.085938 274.644531 116.367188 263.996094 117.171875 253.292969 L 118.785156 231.878906 C 118.917969 230.109375 120.390625 228.742188 122.164062 228.742188 L 250.753906 228.742188 C 252.527344 228.742188 254 230.109375 254.132812 231.878906 L 255.746094 253.292969 C 256.550781 263.996094 252.832031 274.644531 245.535156 282.507812 C 238.242188 290.378906 227.910156 294.886719 217.183594 294.886719 L 155.734375 294.886719 " fill-opacity="1" fill-rule="nonzero"/><path fill="#545454" d="M 250.753906 225.351562 L 122.164062 225.351562 C 118.617188 225.351562 115.671875 228.085938 115.40625 231.625 L 113.792969 253.039062 C 112.917969 264.675781 116.964844 276.257812 124.898438 284.8125 C 132.828125 293.371094 144.070312 298.277344 155.734375 298.277344 L 217.183594 298.277344 C 228.847656 298.277344 240.089844 293.371094 248.019531 284.8125 C 255.953125 276.257812 260 264.675781 259.125 253.039062 L 257.511719 231.625 C 257.246094 228.085938 254.300781 225.351562 250.753906 225.351562 Z M 250.753906 232.132812 L 252.367188 253.546875 C 253.90625 274.03125 237.714844 291.496094 217.183594 291.496094 L 155.734375 291.496094 C 135.203125 291.496094 119.007812 274.03125 120.550781 253.546875 L 122.164062 232.132812 L 250.753906 232.132812 " fill-opacity="1" fill-rule="nonzero"/><path fill="#000000" d="M 182.035156 211.851562 C 174.5625 211.851562 166.984375 211.6875 159.511719 211.363281 C 149.007812 210.90625 134.625 210.277344 126.015625 199.78125 C 125.996094 199.757812 125.976562 199.730469 125.957031 199.707031 C 121.996094 194.589844 121.644531 187.917969 121.820312 182.066406 C 122.058594 174.144531 122.972656 166.1875 124.546875 158.417969 C 124.867188 156.835938 126.253906 155.699219 127.867188 155.699219 L 245.160156 155.699219 C 246.769531 155.699219 248.160156 156.835938 248.480469 158.417969 C 250.050781 166.1875 250.96875 174.144531 251.207031 182.070312 C 251.390625 188.191406 251.203125 195.136719 246.585938 200.078125 C 236.882812 210.453125 220.609375 210.914062 207.535156 211.28125 C 205.972656 211.324219 204.460938 211.367188 203.011719 211.425781 C 196.058594 211.707031 189 211.851562 182.035156 211.851562 " fill-opacity="1" fill-rule="nonzero"/><path fill="#545454" d="M 245.160156 152.308594 L 127.867188 152.308594 C 124.644531 152.308594 121.863281 154.582031 121.226562 157.746094 C 119.617188 165.703125 118.675781 173.855469 118.433594 181.964844 C 118.238281 188.417969 118.664062 195.820312 123.277344 201.78125 C 123.316406 201.832031 123.355469 201.882812 123.398438 201.929688 C 132.964844 213.597656 148.222656 214.261719 159.363281 214.75 C 166.886719 215.074219 174.511719 215.242188 182.035156 215.242188 C 189.046875 215.242188 196.148438 215.097656 203.148438 214.8125 C 204.570312 214.753906 206.054688 214.714844 207.628906 214.667969 C 221.335938 214.28125 238.390625 213.804688 249.0625 202.390625 C 255.019531 196.019531 254.742188 186.878906 254.59375 181.96875 C 254.351562 173.855469 253.410156 165.703125 251.800781 157.746094 C 251.160156 154.582031 248.382812 152.308594 245.160156 152.308594 Z M 245.160156 159.089844 C 246.695312 166.691406 247.585938 174.417969 247.820312 182.171875 C 247.980469 187.484375 247.921875 193.683594 244.113281 197.757812 C 234.273438 208.28125 215.992188 207.507812 202.871094 208.039062 C 195.929688 208.320312 188.984375 208.460938 182.035156 208.460938 C 174.574219 208.460938 167.113281 208.296875 159.660156 207.976562 C 148.695312 207.496094 136.148438 206.789062 128.636719 197.628906 C 125.335938 193.371094 125.042969 187.558594 125.207031 182.171875 C 125.4375 174.417969 126.328125 166.691406 127.867188 159.089844 L 245.160156 159.089844 " fill-opacity="1" fill-rule="nonzero"/><path fill="#000000" d="M 156.082031 186.003906 C 137.949219 186.003906 123.199219 171.246094 123.199219 153.105469 C 123.199219 153.015625 123.203125 152.929688 123.207031 152.839844 C 123.523438 148.851562 124.21875 144.867188 125.277344 140.996094 C 125.679688 139.523438 127.015625 138.503906 128.542969 138.503906 L 244.414062 138.503906 C 245.941406 138.503906 247.28125 139.523438 247.683594 140.996094 C 248.738281 144.855469 249.433594 148.839844 249.75 152.839844 C 250.394531 161.378906 247.425781 169.867188 241.613281 176.136719 C 235.800781 182.410156 227.5625 186.003906 219.015625 186.003906 L 156.082031 186.003906 " fill-opacity="1" fill-rule="nonzero"/><path fill="#545454" d="M 244.414062 135.113281 L 128.542969 135.113281 C 125.488281 135.113281 122.8125 137.15625 122.007812 140.105469 C 120.890625 144.179688 120.160156 148.375 119.832031 152.574219 C 119.816406 152.75 119.808594 152.929688 119.808594 153.105469 C 119.808594 173.113281 136.082031 189.394531 156.082031 189.394531 L 219.015625 189.394531 C 228.5 189.394531 237.644531 185.402344 244.097656 178.441406 C 250.550781 171.484375 253.84375 162.0625 253.128906 152.597656 C 252.796875 148.363281 252.0625 144.164062 250.949219 140.101562 C 250.144531 137.15625 247.464844 135.113281 244.414062 135.113281 Z M 244.414062 141.890625 C 245.402344 145.5 246.066406 149.246094 246.371094 153.105469 C 247.570312 169.03125 234.976562 182.613281 219.015625 182.613281 L 156.082031 182.613281 C 139.859375 182.613281 126.585938 169.335938 126.585938 153.105469 C 126.890625 149.246094 127.558594 145.5 128.542969 141.890625 L 244.414062 141.890625 " fill-opacity="1" fill-rule="nonzero"/></svg>