<svg xmlns="http://www.w3.org/2000/svg" xmlns:xlink="http://www.w3.org/1999/xlink" width="500" zoomAndPan="magnify" viewBox="0 0 375 374.999991" height="500" preserveAspectRatio="xMidYMid meet" version="1.0"><defs><clipPath id="f93827ea52"><path d="M 124 23.613281 L 251 23.613281 L 251 45 L 124 45 Z M 124 23.613281 " clip-rule="nonzero"/></clipPath><clipPath id="4872372100"><path d="M 113.546875 44 L 261.296875 44 L 261.296875 331 L 113.546875 331 Z M 113.546875 44 " clip-rule="nonzero"/></clipPath><clipPath id="278b5d6f7e"><path d="M 124 330 L 251 330 L 251 351.363281 L 124 351.363281 Z M 124 330 " clip-rule="nonzero"/></clipPath><clipPath id="d73decf4aa"><path d="M 124 23.613281 L 251 23.613281 L 251 45 L 124 45 Z M 124 23.613281 " clip-rule="nonzero"/></clipPath></defs><g clip-path="url(#f93827ea52)"><path fill="#000000" d="M 124.101562 23.746094 L 250.742188 23.746094 L 250.742188 44.875 L 124.101562 44.875 Z M 124.101562 23.746094 " fill-opacity="1" fill-rule="nonzero"/></g><g clip-path="url(#4872372100)"><path fill="#000000" d="M 250.742188 44.875 L 124.101562 44.875 C 124.101562 44.875 113.546875 76.566406 113.546875 118.824219 C 113.546875 166.996094 113.546875 287.132812 113.546875 319.566406 C 113.546875 325.398438 118.269531 330.105469 124.101562 330.105469 L 156.867188 330.105469 C 162.246094 330.105469 166.761719 326.058594 167.359375 320.707031 L 187.421875 139.949219 L 207.484375 320.707031 C 208.078125 326.058594 212.597656 330.105469 217.972656 330.105469 L 250.742188 330.105469 C 256.574219 330.105469 261.296875 325.375 261.296875 319.539062 C 261.296875 319.539062 261.296875 166.359375 261.296875 118.824219 C 261.296875 76.566406 250.742188 44.875 250.742188 44.875 Z M 250.742188 44.875 " fill-opacity="1" fill-rule="nonzero"/></g><g clip-path="url(#278b5d6f7e)"><path fill="#545454" d="M 155.761719 330.105469 L 124.101562 330.105469 L 124.101562 351.230469 L 155.761719 351.230469 Z M 250.742188 330.105469 L 219.082031 330.105469 L 219.082031 351.230469 L 250.742188 351.230469 Z M 250.742188 330.105469 " fill-opacity="1" fill-rule="nonzero"/></g><path fill="#545454" d="M 150.214844 72.953125 L 139.660156 104.644531 C 138.921875 106.859375 136.863281 108.257812 134.652344 108.257812 C 134.105469 108.257812 133.539062 108.167969 132.984375 107.984375 C 130.222656 107.066406 128.726562 104.074219 129.652344 101.300781 L 140.203125 69.609375 C 141.121094 66.847656 144.097656 65.34375 146.875 66.277344 C 149.640625 67.195312 151.136719 70.183594 150.214844 72.953125 Z M 234.644531 69.613281 C 233.726562 66.851562 230.738281 65.34375 227.96875 66.277344 C 225.203125 67.195312 223.710938 70.183594 224.632812 72.957031 L 235.1875 104.652344 C 235.921875 106.859375 237.976562 108.257812 240.1875 108.257812 C 240.738281 108.257812 241.300781 108.167969 241.855469 107.984375 C 244.621094 107.066406 246.113281 104.074219 245.191406 101.300781 Z M 234.644531 69.613281 " fill-opacity="1" fill-rule="nonzero"/><g clip-path="url(#d73decf4aa)"><path fill="#545454" d="M 124.101562 23.746094 L 250.742188 23.746094 L 250.742188 44.875 L 124.101562 44.875 Z M 124.101562 23.746094 " fill-opacity="1" fill-rule="nonzero"/></g></svg>