<svg xmlns="http://www.w3.org/2000/svg" xmlns:xlink="http://www.w3.org/1999/xlink" width="500" zoomAndPan="magnify" viewBox="0 0 375 374.999991" height="500" preserveAspectRatio="xMidYMid meet" version="1.0"><defs><clipPath id="376b669b64"><path d="M 55.34375 74 L 319.34375 74 L 319.34375 326 L 55.34375 326 Z M 55.34375 74 " clip-rule="nonzero"/></clipPath></defs><g clip-path="url(#376b669b64)"><path fill="#000000" d="M 319.324219 305.433594 C 319.324219 305.433594 280.835938 106.78125 272.480469 90.484375 C 269.367188 84.414062 263.632812 79.140625 257.660156 74.910156 C 257.574219 75.144531 257.488281 75.386719 257.390625 75.621094 C 256.40625 78.0625 254.867188 80.429688 252.820312 82.652344 C 247.308594 88.644531 238.003906 93.714844 225.914062 97.3125 C 214.367188 100.75 201.042969 102.65625 187.378906 102.824219 L 187.34375 102.828125 L 187.304688 102.824219 C 173.640625 102.65625 160.316406 100.75 148.769531 97.3125 C 136.679688 93.714844 127.375 88.644531 121.863281 82.652344 C 119.816406 80.429688 118.28125 78.0625 117.292969 75.621094 C 117.199219 75.386719 117.109375 75.144531 117.023438 74.910156 C 111.050781 79.140625 105.316406 84.414062 102.203125 90.484375 C 93.847656 106.78125 55.359375 305.433594 55.359375 305.433594 L 86.371094 315.5625 L 106.164062 269.316406 C 106.164062 269.316406 82.023438 328.898438 187.34375 325.09375 C 292.660156 328.898438 268.523438 269.316406 268.523438 269.316406 L 288.316406 315.5625 L 319.324219 305.433594 " fill-opacity="1" fill-rule="nonzero"/></g><path fill="#000000" d="M 219.699219 52.316406 C 213.101562 58.484375 195.753906 61.566406 187.34375 61.566406 C 178.929688 61.566406 161.585938 58.484375 154.988281 52.316406 C 148.390625 46.152344 119.601562 57.941406 118.917969 67.734375 C 117.601562 86.609375 151.519531 99.449219 187.34375 99.886719 C 223.164062 99.449219 257.082031 86.609375 255.765625 67.734375 C 255.082031 57.941406 226.292969 46.152344 219.699219 52.316406 " fill-opacity="1" fill-rule="nonzero"/><path fill="#ffffff" d="M 174.195312 149.535156 C 173.226562 149.535156 172.4375 148.742188 172.4375 147.773438 L 172.4375 96.976562 C 172.4375 96.007812 173.226562 95.214844 174.195312 95.214844 C 175.164062 95.214844 175.953125 96.007812 175.953125 96.976562 L 175.953125 147.773438 C 175.953125 148.742188 175.164062 149.535156 174.195312 149.535156 " fill-opacity="1" fill-rule="nonzero"/><path fill="#ffffff" d="M 200.488281 149.570312 C 199.523438 149.570312 198.730469 148.78125 198.730469 147.8125 L 198.730469 97.015625 C 198.730469 96.046875 199.523438 95.25 200.488281 95.25 C 201.457031 95.25 202.246094 96.046875 202.246094 97.015625 L 202.246094 147.8125 C 202.246094 148.78125 201.457031 149.570312 200.488281 149.570312 " fill-opacity="1" fill-rule="nonzero"/></svg>